HIERARCHY
ROOT joint_Root
{
	OFFSET 0.0 0.0 0.0
	CHANNELS 6 Xposition Yposition Zposition Zrotation Xrotation Yrotation 
	JOINT Hips
	{
		OFFSET -17.1583 93.1646 452.98
		CHANNELS 6 Xposition Yposition Zposition Zrotation Xrotation Yrotation 
		JOINT Spine
		{
			OFFSET 15.7357 0.0 0.0
			CHANNELS 6 Xposition Yposition Zposition Zrotation Xrotation Yrotation 
			JOINT Chest
			{
				OFFSET 8.98455 -0.406207 0.0
				CHANNELS 6 Xposition Yposition Zposition Zrotation Xrotation Yrotation 
				JOINT Neck
				{
					OFFSET 16.3773 0.0 0.0
					CHANNELS 6 Xposition Yposition Zposition Zrotation Xrotation Yrotation 
					JOINT Head
					{
						OFFSET 6.45672 0.0 0.0
						CHANNELS 6 Xposition Yposition Zposition Zrotation Xrotation Yrotation 
						End Site
						{
							OFFSET 0.0 0.0 0.0
						}
					}
				}
				JOINT Shoulder_L
				{
					OFFSET 12.9942 -0.242716 4.98039
					CHANNELS 6 Xposition Yposition Zposition Zrotation Xrotation Yrotation 
					JOINT UpperArm_L
					{
						OFFSET 5.34809 0.0 0.0
						CHANNELS 6 Xposition Yposition Zposition Zrotation Xrotation Yrotation 
						JOINT LowerArm_L
						{
							OFFSET 24.3286 1.87007e-05 0.0
							CHANNELS 6 Xposition Yposition Zposition Zrotation Xrotation Yrotation 
							JOINT Hand_L
							{
								OFFSET 22.2916 0.0 0.0
								CHANNELS 6 Xposition Yposition Zposition Zrotation Xrotation Yrotation 
								End Site
								{
									OFFSET 0.0 0.0 0.0
								}
							}
						}
					}
				}
				JOINT Shoulder_R
				{
					OFFSET 12.9945 -0.242716 -4.98039
					CHANNELS 6 Xposition Yposition Zposition Zrotation Xrotation Yrotation 
					JOINT UpperArm_R
					{
						OFFSET -5.34813 0.0 0.0
						CHANNELS 6 Xposition Yposition Zposition Zrotation Xrotation Yrotation 
						JOINT LowerArm_R
						{
							OFFSET -24.3289 0.000322201 0.0
							CHANNELS 6 Xposition Yposition Zposition Zrotation Xrotation Yrotation 
							JOINT Hand_R
							{
								OFFSET -22.2915 -0.000108084 0.0
								CHANNELS 6 Xposition Yposition Zposition Zrotation Xrotation Yrotation 
								End Site
								{
									OFFSET 0.0 0.0 0.0
								}
							}
						}
					}
				}
			}
		}
		JOINT UpperLeg_L
		{
			OFFSET -2.19248 -6.46944 0.0
			CHANNELS 6 Xposition Yposition Zposition Zrotation Xrotation Yrotation 
			JOINT LowerLeg_L
			{
				OFFSET 39.0811 0.0 -1.23785e-05
				CHANNELS 6 Xposition Yposition Zposition Zrotation Xrotation Yrotation 
				JOINT Foot_L
				{
					OFFSET 40.9854 0.0 -1.26872e-05
					CHANNELS 6 Xposition Yposition Zposition Zrotation Xrotation Yrotation 
					JOINT Toes_L
					{
						OFFSET 11.7543 0.0 0.0
						CHANNELS 6 Xposition Yposition Zposition Zrotation Xrotation Yrotation 
						End Site
						{
							OFFSET 0.0 0.0 0.0
						}
					}
				}
			}
		}
		JOINT UpperLeg_R
		{
			OFFSET -2.19251 6.46944 0.0
			CHANNELS 6 Xposition Yposition Zposition Zrotation Xrotation Yrotation 
			JOINT LowerLeg_R
			{
				OFFSET -39.0811 -0.00228153 -0.0401928
				CHANNELS 6 Xposition Yposition Zposition Zrotation Xrotation Yrotation 
				JOINT Foot_R
				{
					OFFSET -40.9854 0.0 0.0
					CHANNELS 6 Xposition Yposition Zposition Zrotation Xrotation Yrotation 
					JOINT Toes_R
					{
						OFFSET -11.7543 0.0 0.0
						CHANNELS 6 Xposition Yposition Zposition Zrotation Xrotation Yrotation 
						End Site
						{
							OFFSET 0.0 0.0 0.0
						}
					}
				}
			}
		}
	}
}
MOTION
Frames:	6
Frame Time:	0.0333333
0.000000 0.000000 0.000000 0.000000 0.000000 -0.000000 1.341230 93.291800 -0.748737 87.360400 -1.873540 -1.650470 15.735700 0.000005 -0.000001 80.109000 88.319300 -78.468100 8.984550 -0.406207 -0.000000 -4.441880 -0.751644 3.254730 16.377300 -0.000001 -0.000001 4.578730 3.470770 -2.763140 6.456720 -0.000001 -0.000000 5.296860 3.888550 -1.548080 12.994200 -0.242716 4.980390 -92.612900 8.027810 -71.903800 5.348090 -0.000007 -0.000001 -73.004800 31.962100 0.532246 24.328600 0.000019 0.000005 12.403400 27.453800 -25.502400 22.291600 -0.000001 0.000005 -2.868770 4.955630 8.249100 12.994500 -0.242716 -4.980390 88.485800 4.819900 -72.537000 -5.348130 -0.000001 -0.000004 -71.022800 27.255900 -0.832494 -24.328900 0.000322 -0.000009 3.974340 8.933730 -24.109100 -22.291500 -0.000108 -0.000004 -0.951082 5.231790 1.909160 -2.192480 -6.469440 -0.000000 -178.620000 -2.783280 -3.485700 39.081100 -0.000007 -0.000012 0.143003 -0.498749 15.999000 40.985400 -0.000006 -0.000013 3.856120 8.125850 -70.058000 11.754300 -0.000000 0.000003 0.000280 0.162767 -9.975300 -2.192510 6.469440 -0.000001 -177.036000 4.174860 179.891000 -39.081100 -0.002282 -0.040193 0.002032 0.007085 10.446400 -40.985400 0.000008 0.000006 -5.286530 3.055410 -66.655700 -11.754300 -0.000006 -0.000006 -0.010183 0.272666 -5.495330
0.000000 0.000000 0.000000 0.000000 0.000000 -0.000000 1.257860 93.293800 -0.758709 87.337600 -1.925950 -1.701410 15.735700 0.000005 -0.000001 79.639300 88.313000 -77.982700 8.984550 -0.406207 -0.000000 -4.433720 -0.782573 3.285060 16.377300 -0.000001 -0.000001 4.495020 3.458420 -2.656840 6.456720 -0.000001 -0.000000 5.138730 3.909880 -1.403830 12.994200 -0.242716 4.980390 -92.611100 8.018910 -71.896700 5.348090 -0.000007 -0.000001 -73.025100 31.946600 0.519459 24.328600 0.000019 0.000005 12.448100 27.487500 -25.559900 22.291600 -0.000001 0.000005 -3.014760 4.958110 8.197940 12.994500 -0.242716 -4.980390 88.484000 4.813370 -72.494900 -5.348130 -0.000001 -0.000004 -70.531000 26.504000 -0.928917 -24.328900 0.000322 -0.000009 4.185070 9.102330 -24.827500 -22.291500 -0.000108 -0.000004 -0.989874 5.232210 1.898280 -2.192480 -6.469440 -0.000000 -178.552000 -2.721070 -3.540990 39.081100 -0.000007 -0.000012 0.144013 -0.501944 16.009000 40.985400 -0.000006 -0.000013 3.790970 8.055760 -70.015800 11.754300 -0.000000 0.000003 0.000513 0.158480 -10.149300 -2.192510 6.469440 -0.000001 -176.955000 4.070280 179.835000 -39.081100 -0.002282 -0.040193 0.002146 0.006479 10.426300 -40.985400 0.000008 0.000006 -5.289880 3.037820 -66.625700 -11.754300 -0.000006 -0.000006 -0.010034 0.271555 -5.540760
0.000000 0.000000 0.000000 0.000000 0.000000 -0.000000 1.177080 93.295900 -0.773680 87.344700 -1.925520 -1.735540 15.735700 0.000005 -0.000001 79.150300 88.305100 -77.492500 8.984550 -0.406207 -0.000000 -4.423020 -0.813809 3.286240 16.377300 -0.000001 -0.000001 4.400010 3.425900 -2.495740 6.456720 -0.000001 -0.000000 4.921170 3.926550 -1.156770 12.994200 -0.242716 4.980390 -92.601800 7.995090 -71.907600 5.348090 -0.000007 -0.000001 -73.062100 32.018000 0.504287 24.328600 0.000019 0.000005 12.416600 27.404200 -25.564100 22.291600 -0.000001 0.000005 -2.922390 4.958620 8.187440 12.994500 -0.242716 -4.980390 88.467300 4.849340 -72.436400 -5.348130 -0.000001 -0.000004 -69.933700 25.347100 -0.846340 -24.328900 0.000322 -0.000009 4.610000 9.458730 -26.140300 -22.291500 -0.000108 -0.000004 -1.255670 5.227420 2.022130 -2.192480 -6.469440 -0.000000 -178.510000 -2.626610 -3.601180 39.081100 -0.000007 -0.000012 0.143837 -0.500327 16.039500 40.985400 -0.000006 -0.000013 3.714250 7.953850 -70.066600 11.754300 -0.000000 0.000003 0.000301 0.162386 -9.990780 -2.192510 6.469440 -0.000001 -176.901000 4.073360 179.817000 -39.081100 -0.002282 -0.040193 0.002139 0.006541 10.387800 -40.985400 0.000008 0.000006 -5.158000 3.026130 -66.640600 -11.754300 -0.000006 -0.000006 -0.010106 0.272097 -5.518600
0.000000 0.000000 0.000000 0.000000 0.000000 -0.000000 1.093350 93.294200 -0.792478 87.346200 -1.971110 -1.797630 15.735700 0.000005 -0.000001 78.700900 88.297800 -77.038700 8.984550 -0.406207 -0.000000 -4.413470 -0.843050 3.294100 16.377300 -0.000001 -0.000001 4.266350 3.390590 -2.296820 6.456720 -0.000001 -0.000000 4.629750 3.998520 -0.823003 12.994200 -0.242716 4.980390 -92.599500 7.981040 -71.892800 5.348090 -0.000007 -0.000001 -73.076200 32.108300 0.472333 24.328600 0.000019 0.000005 12.437200 27.416600 -25.592800 22.291600 -0.000001 0.000005 -2.897890 4.958750 8.184620 12.994500 -0.242716 -4.980390 88.458000 4.867850 -72.400000 -5.348130 -0.000001 -0.000004 -69.331200 23.661100 -0.624195 -24.328900 0.000322 -0.000009 5.200860 9.796180 -28.149400 -22.291500 -0.000108 -0.000004 -1.535050 5.213450 2.379830 -2.192480 -6.469440 -0.000000 -178.458000 -2.537370 -3.701140 39.081100 -0.000007 -0.000012 0.144465 -0.500887 16.088800 40.985400 -0.000006 -0.000013 3.637900 7.866050 -70.046900 11.754300 -0.000000 0.000003 0.000379 0.160986 -10.047600 -2.192510 6.469440 -0.000001 -176.845000 4.131930 179.752000 -39.081100 -0.002282 -0.040193 0.002280 0.005787 10.363500 -40.985400 0.000008 0.000006 -5.216030 3.078470 -66.578300 -11.754300 -0.000006 -0.000006 -0.009853 0.270206 -5.595940
0.000000 0.000000 0.000000 0.000000 0.000000 -0.000000 1.000870 93.297300 -0.807823 87.331900 -1.963260 -1.758030 15.735700 0.000005 -0.000001 78.591800 88.259400 -76.914400 8.984550 -0.406207 -0.000000 -4.339010 -0.865111 3.324070 16.377300 -0.000001 -0.000001 4.152120 3.363850 -2.069000 6.456720 -0.000001 -0.000000 4.270630 4.040800 -0.406142 12.994200 -0.242716 4.980390 -92.592700 7.973620 -71.921500 5.348090 -0.000007 -0.000001 -73.092700 32.166100 0.424063 24.328600 0.000019 0.000005 12.422500 27.401200 -25.577300 22.291600 -0.000001 0.000005 -2.871310 4.958490 8.189880 12.994500 -0.242716 -4.980390 88.431700 4.917500 -72.286800 -5.348130 -0.000001 -0.000004 -68.648000 21.361900 -0.273062 -24.328900 0.000322 -0.000009 5.900280 9.928110 -30.941400 -22.291500 -0.000108 -0.000004 -2.106900 5.194040 2.870260 -2.192480 -6.469440 -0.000000 -178.388000 -2.397010 -3.671220 39.081100 -0.000007 -0.000012 0.144504 -0.500475 16.105500 40.985400 -0.000006 -0.000013 3.551430 7.728300 -70.064600 11.754300 -0.000000 0.000003 0.000357 0.161377 -10.031700 -2.192510 6.469440 -0.000001 -176.762000 4.084360 179.805000 -39.081100 -0.002282 -0.040193 0.002128 0.006644 10.324000 -40.985400 0.000008 0.000006 -5.035480 3.059880 -66.613300 -11.754300 -0.000006 -0.000006 -0.010295 0.273493 -5.461490
0.000000 0.000000 0.000000 0.000000 0.000000 -0.000000 0.886078 93.285400 -0.832509 87.286100 -1.952030 -1.810570 15.735700 0.000005 -0.000001 77.424500 88.239800 -75.707100 8.984550 -0.406207 -0.000000 -4.313940 -0.946804 3.401170 16.377300 -0.000001 -0.000001 3.961990 3.343820 -1.742660 6.456720 -0.000001 -0.000000 3.936110 4.199950 -0.030821 12.994200 -0.242716 4.980390 -92.597300 7.981420 -71.908000 5.348090 -0.000007 -0.000001 -73.118300 32.174300 0.443466 24.328600 0.000019 0.000005 12.440000 27.348300 -25.649600 22.291600 -0.000001 0.000005 -2.926990 4.957700 8.206340 12.994500 -0.242716 -4.980390 88.432000 4.883170 -72.173600 -5.348130 -0.000001 -0.000004 -68.146400 18.022800 0.246470 -24.328900 0.000322 -0.000009 7.089120 10.308200 -34.801600 -22.291500 -0.000108 -0.000004 -2.813680 5.154710 3.833350 -2.192480 -6.469440 -0.000000 -178.275000 -2.316250 -3.839480 39.081100 -0.000007 -0.000012 0.148829 -0.508853 16.303300 40.985400 -0.000006 -0.000013 3.472960 7.654250 -70.089400 11.754300 -0.000000 0.000003 0.000486 0.159001 -10.128200 -2.192510 6.469440 -0.000001 -176.628000 4.151060 179.760000 -39.081100 -0.002282 -0.040193 0.002115 0.006740 10.283400 -40.985400 0.000008 0.000006 -4.976400 3.054420 -66.579500 -11.754300 -0.000006 -0.000006 -0.010163 0.272521 -5.501230
